<?xml version="1.0" encoding="utf-8"?>
<!-- Generator: Adobe Illustrator 26.4.1, SVG Export Plug-In . SVG Version: 6.00 Build 0)  -->
<svg version="1.0" id="Layer_1" xmlns:xodm="http://www.corel.com/coreldraw/odm/2003"
	 xmlns="http://www.w3.org/2000/svg" xmlns:xlink="http://www.w3.org/1999/xlink" x="0px" y="0px" viewBox="0 0 2686.71 1745.96"
	 style="enable-background:new 0 0 2686.71 1745.96;" xml:space="preserve">
<style type="text/css">
	.st0{fill:#E6E6E6;}
	.st1{fill:url(#SVGID_1_);}
	.st2{clip-path:url(#SVGID_00000136369050541835452210000002476774959211775389_);}
	.st3{fill-rule:evenodd;clip-rule:evenodd;fill:#811BC7;}
	.st4{fill-rule:evenodd;clip-rule:evenodd;fill:#7319BC;}
	.st5{fill-rule:evenodd;clip-rule:evenodd;fill:#5312B7;}
	.st6{fill-rule:evenodd;clip-rule:evenodd;fill:#A823D8;}
	.st7{fill-rule:evenodd;clip-rule:evenodd;fill:#791AC4;}
	.st8{fill-rule:evenodd;clip-rule:evenodd;fill:#5710AF;}
	.st9{fill-rule:evenodd;clip-rule:evenodd;fill:#A11FD0;}
	.st10{fill-rule:evenodd;clip-rule:evenodd;fill:#901FCE;}
	.st11{fill-rule:evenodd;clip-rule:evenodd;fill:#D100D2;}
	.st12{fill-rule:evenodd;clip-rule:evenodd;fill:#C02BDC;}
	.st13{fill-rule:evenodd;clip-rule:evenodd;fill:url(#SVGID_00000044169904285712146680000017775225655715280778_);}
	.st14{fill:none;}
</style>
<g id="Layer_x0020_1">
	<g id="_2234085662944">
		<path class="st0" d="M834.25,746.74L726.63,999.22h74.5l16.56-45.53h95.2l16.56,45.53h74.5L896.34,746.74h-66.23H834.25z
			 M838.39,899.89l28.97-70.36l28.97,70.36H838.39z"/>
		<path class="st0" d="M1264.71,887.47c0,33.11-16.56,49.67-45.53,49.67s-45.53-16.56-45.53-53.81V742.6h-70.36v140.73
			c0,78.64,45.53,115.89,115.89,115.89s115.89-37.25,115.89-115.89V742.6h-70.36v140.73V887.47z"/>
		<path class="st0" d="M1562.73,746.74h-95.2v252.48h95.2c91.06,0,140.73-53.81,140.73-124.17l0,0
			c0-70.36-49.67-124.17-140.73-124.17V746.74z M1633.09,870.91c0,41.39-28.97,62.09-70.36,62.09h-28.97V804.69h28.97
			c41.39,0,70.36,24.83,70.36,62.09l0,0V870.91z"/>
		<rect x="1827.63" y="746.74" class="st0" width="70.36" height="252.48"/>
		<path class="st0" d="M2196,887.47c0,33.11-16.56,49.67-45.53,49.67c-28.97,0-45.53-16.56-45.53-53.81V742.6h-70.36v140.73
			c0,78.64,45.53,115.89,115.89,115.89s115.89-37.25,115.89-115.89V742.6H2196v140.73V887.47z"/>
		<path class="st0" d="M2498.16,841.94c-33.11-8.28-45.53-12.42-45.53-24.83l0,0c0-8.28,8.28-16.56,24.83-16.56
			c20.7,0,45.53,8.28,70.36,24.83l33.11-49.67c-28.97-20.7-62.09-33.11-103.48-33.11c-62.09,0-95.2,33.11-95.2,78.64l0,0
			c0,49.67,41.39,66.23,95.2,78.64c33.11,8.28,41.39,12.42,41.39,24.83l0,0c0,12.42-8.28,16.56-28.97,16.56
			c-28.97,0-57.95-12.42-82.78-28.97l-37.25,45.53c33.11,28.97,74.5,41.39,115.89,41.39c62.09,0,99.34-28.97,99.34-82.78l0,0
			c0-49.67-33.11-66.23-91.06-78.64L2498.16,841.94z"/>
		<g>
			
				<linearGradient id="SVGID_1_" gradientUnits="userSpaceOnUse" x1="93.3558" y1="1821.297" x2="216.3558" y2="1821.297" gradientTransform="matrix(4.1391 0 0 -4.1391 -293.0507 8413.5312)">
				<stop  offset="0" style="stop-color:#270C84"/>
				<stop  offset="1" style="stop-color:#3112A1"/>
			</linearGradient>
			<path class="st1" d="M461.73,866.77l-66.23-115.89L321,622.57c-4.14-4.14-8.28-8.28-12.42-8.28c-4.14,0-8.28,4.14-12.42,8.28
				L155.44,866.77l-57.95,99.34c0,4.14-4.14,4.14-4.14,8.28c0,8.28,8.28,12.42,12.42,12.42h107.62l0,0c4.14,0,8.28-4.14,12.42-8.28
				l57.95-99.34l8.28-16.56l0,0c4.14-4.14,8.28-4.14,12.42-4.14s8.28,4.14,12.42,8.28l57.95,103.48l12.42,20.7v4.14v4.14
				c0,8.28-8.28,12.42-12.42,12.42H246.5l0,0c-4.14,0-8.28,4.14-12.42,8.28l-53.81,95.2c0,4.14,0,4.14,0,8.28
				c0,8.28,8.28,12.42,12.42,12.42l0,0h397.35c8.28,0,12.42-8.28,12.42-12.42c0-4.14,0-4.14,0-8.28L461.73,870.91V866.77z"/>
			<g>
				<defs>
					<path id="SVGID_00000056395225027223708670000009369707203293830285_" d="M461.73,866.77l-66.23-115.89L321,622.57
						c-4.14-4.14-8.28-8.28-12.42-8.28c-4.14,0-8.28,4.14-12.42,8.28L155.44,866.77l-57.95,99.34c0,4.14-4.14,4.14-4.14,8.28
						c0,8.28,8.28,12.42,12.42,12.42h107.62l0,0c4.14,0,8.28-4.14,12.42-8.28l57.95-99.34l8.28-16.56l0,0
						c4.14-4.14,8.28-4.14,12.42-4.14s8.28,4.14,12.42,8.28l57.95,103.48l12.42,20.7v4.14v4.14c0,8.28-8.28,12.42-12.42,12.42H246.5
						l0,0c-4.14,0-8.28,4.14-12.42,8.28l-53.81,95.2c0,4.14,0,4.14,0,8.28c0,8.28,8.28,12.42,12.42,12.42l0,0h397.35
						c8.28,0,12.42-8.28,12.42-12.42c0-4.14,0-4.14,0-8.28L461.73,870.91V866.77z"/>
				</defs>
				<clipPath id="SVGID_00000012435272583283702190000016993621807701182631_">
					<use xlink:href="#SVGID_00000056395225027223708670000009369707203293830285_"  style="overflow:visible;"/>
				</clipPath>
				<g style="clip-path:url(#SVGID_00000012435272583283702190000016993621807701182631_);">
					<g>
						<g>
							<path class="st3" d="M122.33,920.58l53.81-95.2l37.25-4.14l49.67,70.36l24.83,57.95l41.39,57.95l41.39,37.25l28.97,12.42
								l66.23-4.14l53.81-20.7l20.7-8.28h12.42l20.7,37.25c-53.81,41.39-111.75,57.95-177.98,49.67
								c-62.09-8.28-99.34-53.81-103.48-57.95c-4.14-4.14-28.97-41.39-28.97-41.39s-28.97-57.95-49.67-78.64
								c-20.7-20.7-53.81-28.97-95.2-16.56L122.33,920.58z"/>
							<path class="st4" d="M118.19,916.44l53.81-95.2c0,0,0,0,4.14-4.14l37.25-4.14h4.14l49.67,70.36l0,0l24.83,57.95l41.39,57.95
								l41.39,37.25l28.97,12.42h66.23l53.81-20.7l20.7-8.28c0,0,0,0,4.14,0h12.42c0,0,4.14,0,4.14,4.14l20.7,37.25v4.14l0,0
								c-57.95,41.39-111.75,57.95-182.12,49.67c-62.09-8.28-95.2-49.67-103.48-57.95l0,0c-4.14-4.14-28.97-41.39-28.97-41.39l0,0
								c0,0-28.97-57.95-49.67-78.64c-12.42-8.28-24.83-16.56-37.25-20.7c-16.56-4.14-33.11-4.14-53.81,4.14
								c-4.14,0-4.14,0-4.14-4.14v-4.14L118.19,916.44z M122.33,920.58l53.81-95.2l37.25-4.14l49.67,70.36l24.83,57.95l41.39,57.95
								l41.39,37.25l28.97,12.42l66.23-4.14l53.81-20.7l20.7-8.28h12.42l20.7,37.25c-53.81,41.39-111.75,57.95-177.98,49.67
								c-62.09-8.28-99.34-53.81-103.48-57.95c-4.14-4.14-28.97-41.39-28.97-41.39s-28.97-57.95-49.67-78.64
								c-20.7-20.7-53.81-28.97-95.2-16.56L122.33,920.58z"/>
							<path class="st5" d="M176.14,825.38l33.11-57.95l33.11-4.14l41.39,66.23L321,866.77l78.64,149.01l120.03-16.56l12.42-4.14
								l16.56,33.11c-49.67,45.53-111.75,57.95-173.84,37.25c-53.81-20.7-74.5-74.5-107.62-124.17c0,0-20.7-45.53-33.11-66.23
								C221.67,858.49,205.11,829.52,176.14,825.38z"/>
							<path class="st6" d="M172,821.24l33.11-57.95c0,0,0,0,4.14-4.14l0,0l33.11-4.14c0,0,4.14,0,4.14,4.14l41.39,62.09
								l37.25,37.25l0,0l74.5,149.01l115.89-16.56l12.42-4.14c0,0,4.14,0,4.14,4.14l16.56,33.11v4.14
								c-24.83,24.83-53.81,37.25-82.78,45.53s-62.09,4.14-95.2-8.28c-45.53-16.56-66.23-57.95-91.06-99.34
								c-4.14-8.28-12.42-16.56-16.56-28.97l0,0c0,0-20.7-45.53-33.11-66.23l0,0c-12.42-16.56-28.97-41.39-57.95-45.53
								c-4.14,0-4.14-4.14-4.14-4.14l0,0H172z M176.14,825.38l33.11-57.95l33.11-4.14l41.39,66.23L321,866.77l78.64,149.01
								l120.03-16.56l12.42-4.14l16.56,33.11c-49.67,45.53-111.75,57.95-173.84,37.25c-53.81-20.7-74.5-74.5-107.62-124.17
								c0,0-20.7-45.53-33.11-66.23C221.67,858.49,205.11,829.52,176.14,825.38z"/>
							<path class="st7" d="M209.25,763.3l37.25-62.09l62.09,4.14l82.78,198.68l41.39,57.95l57.95,8.28l28.97-8.28l16.56,24.83
								c0,0-24.83,28.97-57.95,37.25c-33.11,8.28-57.95,8.28-95.2-12.42c-37.25-24.83-95.2-82.78-95.2-82.78l4.14-57.95
								c-20.7-45.53-45.53-86.92-78.64-111.75L209.25,763.3z"/>
							<path class="st8" d="M205.11,763.3l37.25-62.09l4.14-4.14l0,0l62.09,4.14c0,0,4.14,0,4.14,4.14l82.78,198.68l37.25,57.95
								l57.95,4.14l28.97-8.28c0,0,4.14,0,4.14,4.14l16.56,24.83v4.14c-4.14,4.14-28.97,28.97-62.09,37.25
								c-16.56,4.14-28.97,8.28-45.53,4.14c-16.56,0-33.11-8.28-49.67-20.7c-37.25-24.83-95.2-82.78-95.2-82.78v-4.14l4.14-53.81
								c-8.28-24.83-20.7-45.53-37.25-62.09c-12.42-16.56-28.97-33.11-41.39-45.53c0,0-4.14-4.14,0-4.14L205.11,763.3z
								 M209.25,767.43l37.25-62.09l62.09,4.14l82.78,198.68l41.39,57.95l57.95,8.28l28.97-8.28l16.56,24.83
								c0,0-24.83,28.97-57.95,37.25c-33.11,8.28-57.95,8.28-95.2-12.42c-37.25-24.83-95.2-82.78-95.2-82.78l4.14-57.95
								c-20.7-45.53-45.53-86.92-78.64-111.75L209.25,767.43z"/>
							<path class="st9" d="M246.5,705.35l37.25-66.23l66.23,78.64l28.97,62.09l16.56,37.25l99.34,124.17h8.28l16.56,28.97
								c0,0-24.83,24.83-37.25,28.97c-12.42,4.14-20.7,12.42-57.95,0c-33.11-16.56-62.09-82.78-62.09-86.92
								c0-4.14-37.25-78.64-49.67-107.62c-12.42-28.97-37.25-57.95-41.39-62.09c-4.14-4.14-28.97-33.11-28.97-33.11L246.5,705.35z"
								/>
							<path class="st10" d="M242.36,701.21l37.25-66.23c0-4.14,4.14-4.14,4.14,0l0,0l66.23,78.64l0,0l0,0l28.97,62.09l16.56,33.11
								l99.34,120.03h8.28c0,0,4.14,0,4.14,4.14l0,0l16.56,28.97v4.14c0,0-24.83,24.83-41.39,28.97h-4.14
								c-12.42,4.14-20.7,8.28-53.81-4.14c-12.42-4.14-24.83-16.56-33.11-28.97c-16.56-24.83-33.11-53.81-33.11-57.95
								c0,0-8.28-16.56-16.56-37.25c-12.42-24.83-24.83-53.81-33.11-70.36c-12.42-28.97-33.11-53.81-37.25-62.09l0,0l0,0
								C267.2,730.18,242.36,701.21,242.36,701.21v-4.14l0,0V701.21z M246.5,705.35l37.25-66.23l66.23,78.64l28.97,62.09
								l16.56,37.25l99.34,124.17h8.28l16.56,28.97c0,0-24.83,24.83-37.25,28.97c-12.42,4.14-20.7,12.42-57.95,0
								c-33.11-16.56-62.09-82.78-62.09-86.92c0-4.14-37.25-78.64-49.67-107.62c-12.42-28.97-37.25-57.95-41.39-62.09
								c-4.14-4.14-28.97-33.11-28.97-33.11L246.5,705.35z"/>
							<path class="st11" d="M283.75,634.98l8.28-16.56c0,0,0-4.14,8.28-4.14s12.42,4.14,12.42,4.14l0,0l12.42,20.7l169.7,298.01
								c-16.56,24.83-41.39,28.97-66.23,20.7c-28.97-12.42-41.39-57.95-45.53-86.92c-4.14-20.7-28.97-99.34-37.25-120.03
								c-20.7-53.81-33.11-74.5-70.36-115.89H283.75z"/>
							<path class="st12" d="M279.61,634.98l8.28-16.56c0,0,4.14-8.28,12.42-8.28s16.56,4.14,16.56,4.14l4.14,4.14l12.42,24.83l0,0
								l173.84,298.01v4.14c-8.28,12.42-20.7,20.7-33.11,24.83c-12.42,4.14-24.83,4.14-41.39-4.14
								c-33.11-12.42-41.39-57.95-45.53-86.92c0-4.14,0,0,0-4.14c-4.14-12.42-8.28-33.11-16.56-57.95
								c-8.28-24.83-16.56-49.67-20.7-57.95c-12.42-24.83-20.7-45.53-28.97-62.09s-20.7-33.11-41.39-53.81l-4.14-4.14v-4.14H279.61z
								 M283.75,639.12l8.28-16.56c0,0,0-4.14,8.28-4.14s12.42,4.14,12.42,4.14l0,0l12.42,20.7l169.7,298.01
								c-16.56,24.83-41.39,28.97-66.23,20.7c-28.97-12.42-41.39-57.95-45.53-86.92c-4.14-20.7-28.97-99.34-37.25-120.03
								c-20.7-53.81-33.11-74.5-70.36-115.89H283.75z"/>
						</g>
						
							<linearGradient id="SVGID_00000155123126787087739800000000131008177541104575_" gradientUnits="userSpaceOnUse" x1="140.2558" y1="1837.3374" x2="192.2558" y2="1842.3374" gradientTransform="matrix(4.1391 0 0 -4.1391 -293.0507 8413.5312)">
							<stop  offset="0" style="stop-color:#E200DB"/>
							<stop  offset="1" style="stop-color:#D100D2"/>
						</linearGradient>
						
							<path style="fill-rule:evenodd;clip-rule:evenodd;fill:url(#SVGID_00000155123126787087739800000000131008177541104575_);" d="
							M287.89,639.12c16.56-8.28,66.23,91.06,74.5,115.89c8.28,24.83,20.7,53.81,33.11,91.06c4.14,16.56,12.42,57.95,24.83,74.5
							c16.56,24.83,37.25,28.97,53.81,28.97c12.42,0,33.11-16.56,28.97-12.42c-4.14,12.42-28.97,33.11-66.23,20.7
							c-33.11-12.42-41.39-57.95-45.53-86.92c-4.14-20.7-28.97-99.34-37.25-120.03C333.42,697.07,325.14,680.51,287.89,639.12z"/>
					</g>
				</g>
			</g>
			<path class="st14" d="M461.73,866.77l-66.23-115.89L321,622.57c-4.14-4.14-8.28-8.28-12.42-8.28c-4.14,0-8.28,4.14-12.42,8.28
				L155.44,866.77l-57.95,99.34c0,4.14-4.14,4.14-4.14,8.28c0,8.28,8.28,12.42,12.42,12.42h107.62l0,0c4.14,0,8.28-4.14,12.42-8.28
				l57.95-99.34l8.28-16.56l0,0c4.14-4.14,8.28-4.14,12.42-4.14s8.28,4.14,12.42,8.28l57.95,103.48l12.42,20.7v4.14v4.14
				c0,8.28-8.28,12.42-12.42,12.42H246.5l0,0c-4.14,0-8.28,4.14-12.42,8.28l-53.81,95.2c0,4.14,0,4.14,0,8.28
				c0,8.28,8.28,12.42,12.42,12.42l0,0h397.35c8.28,0,12.42-8.28,12.42-12.42c0-4.14,0-4.14,0-8.28L461.73,870.91V866.77z"/>
		</g>
	</g>
</g>
</svg>
